# xmcd CD database file
#
# Track frame offsets:
#	150
#	8840
#	17120
#	26112
#	33517
#	42902
#	54012
#	62105
#	72835
#	84152
#	94510
#	103432
#	109592
#	118205
#	129440
#	140212
#	150610
#	162095
#	176280
#	185260
#	198462
#	211445
#	220592
#	226885
#
# Disc length: 3167 seconds
#
# Revision: 3
# Processed by: cddbd v1.5PL3 Copyright (c) Steve Scherf et al.
# Submitted via: CDex 1.51
#
DISCID=430c5d18
DTITLE=Hank Williams - Hank Williams - Rare Demos: First To Last (Country Music Foundation)
DYEAR=1990
DGENRE=Country
TTITLE0=Won't You Sometimes Think Of Me
TTITLE1=Why Should I Cry
TTITLE2=Calling You
TTITLE3=You Broke Your Own Heart
TTITLE4=Pan American
TTITLE5=Mother Is Gone
TTITLE6=I Watched My Dream World Crumble Like Clay
TTITLE7=In My Dreams You Still Belong To Me
TTITLE8=Wealth Won't Save Your Soul
TTITLE9=I Told A Lie To My Heart
TTITLE10=Singing Waterfall
TTITLE11=I'm Goin' Home
TTITLE12=Jambalaya
TTITLE13=Heaven Holds All My Treasures
TTITLE14=You Better Keep It On Your Mind
TTITLE15=Lost On The River
TTITLE16=Your Cheatin' Heart
TTITLE17=A House Of Gold
TTITLE18=Honky Tonk Blues
TTITLE19=Help Me Understand
TTITLE20='Neath A Cold Gray Tomb Of Stone
TTITLE21=There's Nothing As Sweet As My Baby
TTITLE22=Fool About You
TTITLE23=The Log Train
EXTD=YEAR: 1990
EXTT0=
EXTT1=
EXTT2=
EXTT3=
EXTT4=
EXTT5=
EXTT6=
EXTT7=
EXTT8=
EXTT9=
EXTT10=
EXTT11=
EXTT12=
EXTT13=
EXTT14=
EXTT15=
EXTT16=
EXTT17=
EXTT18=
EXTT19=
EXTT20=
EXTT21=
EXTT22=
EXTT23=
PLAYORDER=
